<?xml version="1.0" encoding="utf-8"?>
<!-- Generator: Adobe Illustrator 18.0.0, SVG Export Plug-In . SVG Version: 6.00 Build 0)  -->
<!DOCTYPE svg PUBLIC "-//W3C//DTD SVG 1.1//EN" "http://www.w3.org/Graphics/SVG/1.1/DTD/svg11.dtd">
<svg version="1.1" id="Capa_1" xmlns="http://www.w3.org/2000/svg" xmlns:xlink="http://www.w3.org/1999/xlink" x="0px" y="0px"
	 viewBox="0 0 180 44" enable-background="new 0 0 180 44" xml:space="preserve">
<g>
	<path fill-rule="evenodd" clip-rule="evenodd" fill="#FFFFFF" d="M95.3,40.8c-0.8-0.7-1.5-1.8-1.9-2.6l2.7-1.2
		c0.2,0.3,0.4,0.8,0.8,1.3c0.7,0.8,1.6,1.3,2.8,1.3c1.1,0,2.3-0.5,2.9-1.4c0.6-0.8,0.8-1.8,0.8-2.8v-1.1c-1.9,2.5-6.2,2.2-8.6-0.4
		c-2.5-2.8-2.5-7.3,0.1-10c2.5-2.5,6.3-2.8,8.5-0.5c0,0,0,0,0,0v-1.2h3v12.8c0,3.3-1.2,5.1-2.7,6.2c-1.1,0.8-2.6,1.1-4,1.1
		C98,42.4,96.5,41.8,95.3,40.8L95.3,40.8z M166.1,41.5L166.1,41.5l2.8-6.8l-5-11.7h2.9l3.6,8.3l3.5-8.3h2.9l-7.8,18.5H166.1
		L166.1,41.5z M152.4,35.1L152.4,35.1c-0.8-0.8-1.3-2-1.3-3.1c0-1,0.3-2,1-2.8c1.2-1.2,2.9-1.8,4.7-1.8c1.2,0,2.3,0.2,3,0.7
		c0-2.1-1.6-2.9-3-2.9c-1.3,0-2.4,0.7-2.8,1.8l-2.6-1c0.5-1.2,1.9-3.4,5.3-3.4c1.7,0,3.3,0.6,4.4,1.7c1.1,1.1,1.4,2.6,1.4,4.5v7.1
		h-2.8v-1.3c-0.4,0.5-0.9,0.9-1.5,1.2c-0.7,0.4-1.6,0.5-2.4,0.5C154.8,36.4,153.3,35.9,152.4,35.1L152.4,35.1z M62.4,29L62.4,29
		c0-3.4,2.6-7.1,7-7.1c4.5,0,7,3.7,7,7.1c0,3.4-2.6,7.1-7,7.1C64.9,36.1,62.4,32.3,62.4,29L62.4,29z M77.6,29L77.6,29
		c0-3.4,2.6-7.1,7-7.1c4.5,0,7,3.7,7,7.1c0,3.4-2.6,7.1-7,7.1C80.2,36.1,77.6,32.3,77.6,29L77.6,29z M43.3,32.7L43.3,32.7
		c-4.3-4.3-4.1-11.2,0.1-15.5c2.1-2.2,4.9-3.2,7.8-3.2c2.7,0,5.4,1,7.5,3l-2.1,2.2c-3.1-3-7.9-2.9-10.9,0.1c-3,3.1-3.1,8.2-0.1,11.3
		c3,3.1,8.1,3.3,11.1,0.2c1-1.1,1.4-2.4,1.6-3.8h-7.1v-3h10c0.1,0.8,0.2,1.5,0.2,2.3c0,2.5-1.1,5.1-2.7,6.8
		c-1.9,1.9-4.5,2.9-7.3,2.9C48.4,36,45.5,34.9,43.3,32.7L43.3,32.7z M114.7,34L114.7,34c-2.5-2.8-2.5-7.3,0-10.1
		c2.5-2.8,6.8-2.7,9.2,0c0.8,0.9,1.3,2.1,1.8,3.3l-9.4,3.9c0.5,1.1,1.6,2.2,3.3,2.2c1.5,0,2.5-0.5,3.5-2l2.5,1.7h0
		c-0.3,0.4-0.6,0.7-0.9,1C122.2,36.7,117.2,36.7,114.7,34L114.7,34z M132.3,35.9L132.3,35.9V17.3h6c3.6,0,6.4,2.5,6.4,5.7
		s-2.6,5.7-5.8,5.7h-3.7v7.4H132.3L132.3,35.9z M146.6,35.9L146.6,35.9V17.2h2.8v18.7H146.6L146.6,35.9z M108.4,35.6L108.4,35.6
		V14.7h3.1v20.9H108.4L108.4,35.6z M160,30.5L160,30.5c-0.7-0.5-1.8-0.7-2.7-0.7c-2,0-3.2,1-3.2,2.1c0,1.3,1.2,1.9,2.3,1.9
		C158,33.8,160,32.4,160,30.5L160,30.5z M73.3,29L73.3,29c0-2-1.4-4.3-3.9-4.3c-2.5,0-3.9,2.2-3.9,4.3c0,2,1.4,4.3,3.9,4.3
		C71.9,33.2,73.3,31,73.3,29L73.3,29z M88.6,29L88.6,29c0-2-1.4-4.3-3.9-4.3c-2.5,0-3.9,2.2-3.9,4.3c0,2,1.4,4.3,3.9,4.3
		C87.1,33.2,88.6,31,88.6,29L88.6,29z M103.5,30.3L103.5,30.3c0-0.1,0.1-0.3,0.1-0.5c0,0,0-0.1,0-0.1c0-0.2,0.1-0.5,0.1-0.8
		c0-0.2,0-0.5-0.1-0.7c0,0,0-0.1,0-0.1c0-0.2-0.1-0.4-0.2-0.6c-0.5-1.7-1.9-2.8-3.6-2.8c-2.1,0-3.8,1.9-3.8,4.3
		c0,2.4,1.7,4.3,3.8,4.2C101.5,33.2,102.9,32,103.5,30.3L103.5,30.3z M115.9,28.7L115.9,28.7l6.3-2.7c-0.6-1.1-1.7-1.5-2.6-1.5
		C117.1,24.6,115.5,27.3,115.9,28.7L115.9,28.7z M141.8,23L141.8,23c0-1.6-1.3-3-3.2-3h-3.4v5.9h3.6C140.4,25.9,141.8,24.6,141.8,23
		z"/>
	<g>
		<linearGradient id="SVGID_1_" gradientUnits="userSpaceOnUse" x1="11.7105" y1="10.3936" x2="18.9829" y2="40.2602">
			<stop  offset="0" style="stop-color:#006881"/>
			<stop  offset="1" style="stop-color:#87CECD"/>
		</linearGradient>
		<path fill-rule="evenodd" clip-rule="evenodd" fill="url(#SVGID_1_)" d="M3.3,27.3V13.6c0-0.7,0.6-1.4,1.3-1.4
			c0.6,0,0.9,0.2,1.2,0.3l25.1,13.7c0.5,0.3,0.8,0.7,0.8,1.1c0,0.4-0.3,0.8-0.8,1.1L5.9,42.1c-0.3,0.2-0.6,0.3-1.2,0.3
			c-0.7,0-1.3-0.7-1.3-1.4V27.3z"/>
		<linearGradient id="SVGID_2_" gradientUnits="userSpaceOnUse" x1="2.8421" y1="14.6418" x2="22.6606" y2="25.3558">
			<stop  offset="0" style="stop-color:#24B8B3"/>
			<stop  offset="1" style="stop-color:#D8E38F"/>
		</linearGradient>
		<path fill-rule="evenodd" clip-rule="evenodd" fill="url(#SVGID_2_)" d="M19.6,27.4L4.4,12.2c0.1,0,0.2,0,0.2,0
			c0.6,0,0.9,0.2,1.2,0.3l18.5,10.1L19.6,27.4z"/>
		<linearGradient id="SVGID_3_" gradientUnits="userSpaceOnUse" x1="25.6455" y1="32.5381" x2="25.6455" y2="22.2126">
			<stop  offset="0" style="stop-color:#F9BD72"/>
			<stop  offset="1" style="stop-color:#F2875B"/>
		</linearGradient>
		<path fill-rule="evenodd" clip-rule="evenodd" fill="url(#SVGID_3_)" d="M24.2,32.1l-4.6-4.6l4.8-4.8l6.6,3.6
			c0.5,0.3,0.8,0.7,0.8,1.1c0,0.4-0.3,0.8-0.8,1.1L24.2,32.1z"/>
		<linearGradient id="SVGID_4_" gradientUnits="userSpaceOnUse" x1="6.6795" y1="45.0729" x2="22.3355" y2="29.1395">
			<stop  offset="0" style="stop-color:#712B8C"/>
			<stop  offset="1" style="stop-color:#E71D27"/>
		</linearGradient>
		<path fill-rule="evenodd" clip-rule="evenodd" fill="url(#SVGID_4_)" d="M4.5,42.4L4.5,42.4l15-15l4.6,4.6l-18.4,10
			C5.5,42.2,5.2,42.4,4.5,42.4C4.6,42.4,4.6,42.4,4.5,42.4z"/>
	</g>
	<g>
		<path fill="#FFFFFF" d="M46.4,8h-3.6L42,10.2h-1.2l3.3-8.5h1l3.3,8.5h-1.2L46.4,8z M43.1,7.1H46l-1.5-4L43.1,7.1z"/>
		<path fill="#FFFFFF" d="M50.8,6.9v3.3h-1.1V1.7h3.1c0.9,0,1.7,0.2,2.2,0.7s0.8,1.1,0.8,1.9c0,0.8-0.3,1.5-0.8,1.9
			s-1.3,0.7-2.2,0.7H50.8z M50.8,6h2c0.6,0,1.1-0.1,1.4-0.4c0.3-0.3,0.5-0.7,0.5-1.2c0-0.5-0.2-0.9-0.5-1.2s-0.8-0.5-1.3-0.5h-2.1V6
			z"/>
		<path fill="#FFFFFF" d="M58.6,6.9v3.3h-1.1V1.7h3.1c0.9,0,1.7,0.2,2.2,0.7s0.8,1.1,0.8,1.9c0,0.8-0.3,1.5-0.8,1.9
			s-1.3,0.7-2.2,0.7H58.6z M58.6,6h2c0.6,0,1.1-0.1,1.4-0.4c0.3-0.3,0.5-0.7,0.5-1.2c0-0.5-0.2-0.9-0.5-1.2s-0.8-0.5-1.3-0.5h-2.1V6
			z"/>
		<path fill="#FFFFFF" d="M68.5,10.2V1.7H71c0.7,0,1.4,0.2,2,0.5s1,0.8,1.3,1.4s0.5,1.3,0.5,2.1v0.5c0,0.8-0.2,1.5-0.5,2.1
			s-0.8,1.1-1.3,1.4s-1.2,0.5-2,0.5H68.5z M69.7,2.6v6.7h1.2c0.9,0,1.5-0.3,2-0.8s0.7-1.3,0.7-2.3V5.7c0-1-0.2-1.7-0.7-2.3
			c-0.5-0.5-1.1-0.8-1.9-0.8H69.7z"/>
		<path fill="#FFFFFF" d="M77.9,10.2h-1.1V1.7h1.1V10.2z"/>
		<path fill="#FFFFFF" d="M82.7,6.4c-1-0.3-1.7-0.6-2.1-1s-0.7-0.9-0.7-1.5c0-0.7,0.3-1.2,0.8-1.7s1.2-0.7,2.1-0.7
			c0.6,0,1.1,0.1,1.6,0.3s0.8,0.5,1.1,0.9s0.4,0.8,0.4,1.3h-1.1c0-0.5-0.2-0.9-0.5-1.2s-0.8-0.4-1.4-0.4c-0.6,0-1,0.1-1.3,0.4
			c-0.3,0.2-0.5,0.6-0.5,1c0,0.3,0.1,0.6,0.4,0.9C81.8,5,82.3,5.2,83,5.4s1.3,0.4,1.7,0.7s0.7,0.5,0.9,0.8s0.3,0.7,0.3,1.1
			c0,0.7-0.3,1.2-0.8,1.7s-1.3,0.6-2.2,0.6c-0.6,0-1.1-0.1-1.6-0.3S80.3,9.5,80,9.1s-0.4-0.8-0.4-1.3h1.1c0,0.5,0.2,0.9,0.6,1.2
			s0.9,0.4,1.5,0.4c0.6,0,1-0.1,1.4-0.4s0.5-0.6,0.5-1s-0.1-0.7-0.4-1S83.4,6.6,82.7,6.4z"/>
		<path fill="#FFFFFF" d="M88.6,6.9v3.3h-1.1V1.7h3.1c0.9,0,1.7,0.2,2.2,0.7s0.8,1.1,0.8,1.9c0,0.8-0.3,1.5-0.8,1.9
			s-1.3,0.7-2.2,0.7H88.6z M88.6,6h2c0.6,0,1.1-0.1,1.4-0.4c0.3-0.3,0.5-0.7,0.5-1.2c0-0.5-0.2-0.9-0.5-1.2s-0.8-0.5-1.3-0.5h-2.1V6
			z"/>
		<path fill="#FFFFFF" d="M101.9,6.2c0,0.8-0.1,1.6-0.4,2.2s-0.7,1.1-1.2,1.4s-1.1,0.5-1.8,0.5c-0.7,0-1.3-0.2-1.8-0.5
			S95.8,9,95.5,8.4S95,7.1,95,6.3V5.7c0-0.8,0.1-1.5,0.4-2.2s0.7-1.1,1.2-1.4s1.1-0.5,1.8-0.5c0.7,0,1.3,0.2,1.8,0.5
			s0.9,0.8,1.2,1.4s0.4,1.4,0.4,2.2V6.2z M100.8,5.7c0-1-0.2-1.8-0.6-2.3s-1-0.8-1.7-0.8c-0.7,0-1.3,0.3-1.7,0.8s-0.6,1.3-0.6,2.3
			v0.6c0,1,0.2,1.8,0.6,2.3s1,0.8,1.7,0.8c0.7,0,1.3-0.3,1.7-0.8s0.6-1.3,0.6-2.3V5.7z"/>
		<path fill="#FFFFFF" d="M110.4,10.2h-1.1l-4.3-6.6v6.6h-1.1V1.7h1.1l4.3,6.6V1.7h1.1V10.2z"/>
		<path fill="#FFFFFF" d="M113.8,10.2h-1.1V1.7h1.1V10.2z"/>
		<path fill="#FFFFFF" d="M116.1,10.2V1.7h2.8c0.9,0,1.6,0.2,2.1,0.6s0.7,0.9,0.7,1.7c0,0.4-0.1,0.8-0.3,1.1s-0.5,0.5-0.9,0.7
			c0.5,0.1,0.8,0.4,1.1,0.7s0.4,0.8,0.4,1.3c0,0.8-0.2,1.4-0.7,1.8s-1.2,0.7-2.1,0.7H116.1z M117.2,5.3h1.7c0.5,0,0.9-0.1,1.2-0.4
			c0.3-0.2,0.4-0.6,0.4-1c0-0.5-0.1-0.8-0.4-1c-0.3-0.2-0.7-0.3-1.2-0.3h-1.7V5.3z M117.2,6.2v3.1h1.9c0.5,0,0.9-0.1,1.2-0.4
			s0.5-0.6,0.5-1.1c0-1-0.6-1.5-1.7-1.5H117.2z"/>
		<path fill="#FFFFFF" d="M125,9.3h4v0.9h-5.2V1.7h1.1V9.3z"/>
		<path fill="#FFFFFF" d="M135.3,6.3h-3.7v3h4.3v0.9h-5.4V1.7h5.4v0.9h-4.2v2.7h3.7V6.3z"/>
		<path fill="#FFFFFF" d="M145.6,6.3h-3.7v3h4.3v0.9h-5.4V1.7h5.4v0.9h-4.2v2.7h3.7V6.3z"/>
		<path fill="#FFFFFF" d="M154.4,10.2h-1.1L149,3.6v6.6h-1.1V1.7h1.1l4.3,6.6V1.7h1.1V10.2z"/>
	</g>
</g>
</svg>
