<?xml version="1.0" encoding="utf-8"?>
<!-- Generator: Adobe Illustrator 21.0.2, SVG Export Plug-In . SVG Version: 6.00 Build 0)  -->
<svg version="1.1" id="Layer_1" xmlns="http://www.w3.org/2000/svg" xmlns:xlink="http://www.w3.org/1999/xlink" x="0px" y="0px"
	 viewBox="0 0 40 8" enable-background="new 0 0 40 8" xml:space="preserve">
<g id="Layer_1_1_" display="none">
</g>
<g id="Facebook" display="none">
	<g display="inline">
		<path id="Facebook_2_" d="M11.4-15.9c0,1.6,0,8.9,0,8.9H4.8V4h6.6v32.5h13.5V4h9c0,0,0.8-5.2,1.3-11C34-7,25-7,25-7s0-6.4,0-7.5
			s1.5-2.6,2.9-2.6s4.5,0,7.3,0c0-1.5,0-6.6,0-11.4c-3.8,0-8.1,0-10,0C11.1-28.5,11.4-17.5,11.4-15.9z"/>
	</g>
</g>
<g id="Twitter" display="none">
	<g display="inline">
		<g>
			<path d="M52.5-16.2c-2.4,1.1-5,1.8-7.7,2.1c2.8-1.6,4.9-4.3,5.9-7.4c-2.6,1.5-5.4,2.6-8.5,3.2c-2.4-2.6-5.9-4.2-9.7-4.2
				c-7.4,0-13.3,6-13.3,13.3c0,1,0.1,2.1,0.3,3C8.4-6.6-1.4-11.9-8-20c-1.1,2-1.8,4.3-1.8,6.7c0,4.6,2.4,8.7,5.9,11.1
				c-2.2-0.1-4.2-0.7-6-1.7v0.2c0,6.5,4.6,11.8,10.7,13.1c-1.1,0.3-2.3,0.5-3.5,0.5c-0.9,0-1.7-0.1-2.5-0.2C-3.5,15,1.4,18.9,7.3,19
				C2.7,22.6-3,24.7-9.3,24.7c-1.1,0-2.1-0.1-3.2-0.2c5.9,3.8,12.9,6,20.4,6c24.5,0,37.9-20.3,37.9-37.9v-1.7
				C48.5-11.1,50.7-13.5,52.5-16.2z"/>
		</g>
	</g>
</g>
<g id="Instagram" display="none">
	<g display="inline">
		<path d="M34.6-28.5H5.4c-9.9,0-17.9,8-17.9,17.9v29.1c0,9.9,8,17.9,17.9,17.9h29.1c9.9,0,17.9-8,17.9-17.9v-29.1
			C52.5-20.5,44.5-28.5,34.6-28.5z M46.7,18.6c0,6.7-5.5,12.2-12.2,12.2H5.4c-6.7,0-12.2-5.5-12.2-12.2v-29.2
			c0-6.7,5.5-12.2,12.2-12.2h29.1c6.7,0,12.2,5.5,12.2,12.2V18.6L46.7,18.6z"/>
		<path d="M20-12.7C10.8-12.7,3.3-5.2,3.3,4S10.8,20.7,20,20.7S36.7,13.2,36.7,4S29.2-12.7,20-12.7z M20,15C13.9,15,9,10.1,9,4
			S13.9-7,20-7S31-2.1,31,4S26.1,15,20,15z"/>
		<path d="M37.5-17.6c-1.1,0-2.2,0.4-3,1.2c-0.8,0.8-1.2,1.9-1.2,3s0.5,2.2,1.2,3c0.8,0.8,1.9,1.2,3,1.2s2.2-0.5,3-1.2
			c0.8-0.8,1.2-1.9,1.2-3s-0.4-2.2-1.2-3C39.7-17.2,38.6-17.6,37.5-17.6z"/>
	</g>
</g>
<g id="Message" display="none">
	<g display="inline">
		<path d="M43-19c-6.1-6.1-14.3-9.5-23-9.5S3.2-25.1-3-19c-9.7,9.7-12.3,24.6-6.3,37l0.2,0.5l-3,17.6l17.6-3L6,33.3
			c4.3,2.1,9.2,3.2,14,3.2c8.7,0,16.8-3.4,23-9.5c6.1-6.1,9.5-14.3,9.5-23S49.1-12.8,43-19z M41.1,25.1C35.4,30.7,28,33.8,20,33.8
			c-4.4,0-8.9-1-12.8-2.9l-1.3-0.6l-14.7,2.5l2.5-14.7l-0.6-1.3c-5.4-11.4-3.1-25,5.8-33.9C4.5-22.7,12-25.8,20-25.8
			s15.4,3.1,21.1,8.7C46.7-11.5,49.8-4,49.8,4S46.7,19.4,41.1,25.1z"/>
		<path d="M37.8-1H2.2C1.4-1,0.7-0.3,0.7,0.5S1.4,2,2.2,2h35.6c0.8,0,1.5-0.7,1.5-1.5S38.6-1,37.8-1z"/>
		<path d="M31.9,10H8.1c-0.8,0-1.5,0.7-1.5,1.5S7.3,13,8.1,13h23.7c0.8,0,1.5-0.7,1.5-1.5C33.3,10.7,32.7,10,31.9,10z"/>
	</g>
</g>
<g id="Paw" display="none">
	<g display="inline">
		<path d="M9.6-6.5c2,0,3.9-1.1,5.3-3.2c1.3-1.9,2-4.4,2-7s-0.7-5.1-2-7c-1.4-2.1-3.3-3.3-5.3-3.3s-3.9,1.1-5.3,3.2
			c-1.3,1.9-2,4.4-2,7s0.7,5.1,2,7C5.7-7.6,7.6-6.5,9.6-6.5z M9.6-24.3c2.5,0,4.5,3.5,4.5,7.6S12-9.1,9.6-9.1s-4.5-3.5-4.5-7.6
			C5.1-20.8,7.1-24.3,9.6-24.3z"/>
		<path d="M30.4-6.5c2,0,3.9-1.1,5.3-3.2c1.3-1.9,2-4.4,2-7s-0.7-5.1-2-7c-1.4-2.1-3.3-3.3-5.3-3.3s-3.9,1.1-5.3,3.2
			c-1.3,1.9-2,4.4-2,7s0.7,5.1,2,7C26.5-7.6,28.4-6.5,30.4-6.5z M30.4-24.3c2.5,0,4.5,3.5,4.5,7.6s-2.1,7.6-4.5,7.6
			c-2.5,0-4.5-3.5-4.5-7.6S27.9-24.3,30.4-24.3z"/>
		<path d="M50.5-4.5c-1.4-2.1-3.3-3.2-5.3-3.2s-3.9,1.1-5.3,3.2c-1.3,1.9-2,4.4-2,7s0.7,5.1,2,7c1.4,2.1,3.3,3.2,5.3,3.2
			s3.9-1.1,5.3-3.2c1.3-1.9,2-4.4,2-7S51.8-2.6,50.5-4.5z M45.2,10.1c-2.5,0-4.5-3.5-4.5-7.6s2.1-7.6,4.5-7.6c2.5,0,4.5,3.5,4.5,7.6
			C49.8,6.7,47.7,10.1,45.2,10.1z"/>
		<path d="M0.1,9.6c1.3-1.9,2-4.4,2-7s-0.7-5.1-2-7c-1.4-2.1-3.3-3.2-5.3-3.2s-3.9,1.1-5.3,3.2c-1.3,1.9-2,4.4-2,7s0.7,5.1,2,7
			c1.4,2.1,3.3,3.2,5.3,3.2S-1.3,11.7,0.1,9.6z M-5.2,10.1c-2.5,0-4.5-3.5-4.5-7.6s2.1-7.6,4.5-7.6s4.5,3.5,4.5,7.6
			C-0.7,6.7-2.8,10.1-5.2,10.1z"/>
		<path d="M36.5,13.8l-2.6-1.3c-1.3-0.6-2.6-2.4-3.1-4.2l-0.8-3l0,0c-0.6-2.3-1.9-4.5-3.7-6c-1.9-1.7-4.1-2.5-6.4-2.5
			s-4.5,0.9-6.4,2.5c-1.7,1.5-3,3.7-3.7,6L9,8.3c-0.5,1.8-1.8,3.6-3.1,4.2l-2.6,1.3c-3.5,1.7-7.1,4.3-7.1,10.7
			c0,3.5,1.6,6.8,4.3,8.7C2.1,34.4,4,35,6,35c1.1,0,2.2-0.2,3.3-0.5c0.6-0.1,7-1.7,10.5-1.7s10,1.6,10.5,1.7c3.2,1,6.3,0.6,8.8-1.2
			c2.7-2,4.3-5.2,4.3-8.7C43.6,18.1,40,15.5,36.5,13.8z M37.7,31c-1.3,0.9-3.4,1.8-6.4,0.8h-0.1C31,31.8,24,30,20,30
			S9,31.7,8.8,31.8H8.7c-3,1-5.1,0.1-6.4-0.8c-1.9-1.4-3.2-3.9-3.2-6.5c0-4.6,2.1-6.6,5.6-8.3l2.6-1.3c2.3-1.1,3.9-3.8,4.5-5.9
			l0.8-3c1-3.8,4.2-6.5,7.4-6.5c3.3,0,6.4,2.7,7.4,6.5l0.8,3c0.6,2.2,2.2,4.8,4.5,5.9l2.6,1.3c3.4,1.7,5.6,3.6,5.6,8.3
			C40.9,27.1,39.7,29.6,37.7,31z"/>
	</g>
</g>
<g id="Share" display="none">
	<path display="inline" d="M38.7,8.9c-4.9,0-9.2,2.6-11.7,6.4L14.2,9c0.6-1.5,0.9-3.2,0.9-5s-0.3-3.5-0.9-5L27-7.3
		c2.5,3.9,6.8,6.4,11.7,6.4c7.6,0,13.8-6.2,13.8-13.8s-6.2-13.8-13.8-13.8s-13.8,6.2-13.8,13.8c0,1.8,0.3,3.4,0.9,5L12.9-3.4
		C10.4-7.2,6.1-9.8,1.3-9.8C-6.3-9.8-12.5-3.6-12.5,4s6.2,13.8,13.8,13.8c4.9,0,9.2-2.6,11.7-6.4l12.8,6.3c-0.6,1.5-0.9,3.2-0.9,5
		c0,7.6,6.2,13.8,13.8,13.8s13.8-6.2,13.8-13.8S46.3,8.9,38.7,8.9z M38.7-25.8c6.1,0,11.1,5,11.1,11.1s-5,11.1-11.1,11.1
		s-11.1-5-11.1-11.1S32.6-25.8,38.7-25.8z M1.3,15.1c-6.1,0-11.1-5-11.1-11.1s5-11.1,11.1-11.1S12.4-2.1,12.4,4S7.4,15.1,1.3,15.1z
		 M38.7,33.8c-6.1,0-11.1-5-11.1-11.1s5-11.1,11.1-11.1s11.1,5,11.1,11.1S44.8,33.8,38.7,33.8z"/>
</g>
<g id="Heart" display="none">
	<g id="XMLID_1_" display="inline">
		<path d="M20,31.8c-0.6,0-1.1-0.1-1.6-0.3c-0.9-0.4-9.2-4.2-17-10.7C-3.2,17-6.7,12.9-9,8.8c-2.9-5.2-4-10.6-3.2-16
			c1.4-9.4,9.2-16.4,18-16.4c0.4,0,0.8,0,1.3,0c5.4,0.4,10,4.2,12.9,8c3.1-4.2,8.2-8.1,14.3-8.1h0.3c8.9,0.1,16.3,7.1,17.7,16.5l0,0
			c0.8,5.4-0.4,10.8-3.3,16c-2.3,4.1-5.8,8.2-10.4,12c-7.8,6.5-16,10.3-16.9,10.7C21.1,31.7,20.6,31.8,20,31.8z M5.8-21.1
			C-1.7-21.1-8.3-15-9.5-7c-1.3,8.8,3,17.4,12.7,25.6c7.7,6.4,16,10.2,16.4,10.3c0.3,0.1,0.7,0.1,1,0c0.3-0.2,8.7-3.9,16.3-10.3
			c9.7-8.1,14-16.7,12.8-25.5l0,0c-1.1-8.1-7.5-14.1-15-14.2h-0.3c-5.8,0-10.6,4.4-13.1,8.5l-0.7,1.2c-0.2,0.3-0.6,0.3-0.8,0
			l-0.7-1.2c-2.4-3.8-6.9-8.1-12-8.4C6.5-21,6.1-21.1,5.8-21.1z"/>
	</g>
</g>
<g id="Pin" display="none">
	<g display="inline">
		<path d="M37.7-21.2c-4.2-4.3-9.6-6.8-15.7-7.2c-1.3-0.1-2.7-0.1-4,0C8.9-27.8,1.2-22.3-2.6-13.8C-6.5-5-5.2,5.1,0.8,12.6l19.2,24
			l19.2-24C47.2,2.5,46.5-11.9,37.7-21.2z M37.1,10.8L20,32.2L2.9,10.8c-5.3-6.7-6.5-15.7-3-23.6c3.3-7.6,10.2-12.5,18.3-13
			c0.6,0,1.2-0.1,1.8-0.1s1.2,0,1.8,0.1c5.4,0.4,10.2,2.6,13.9,6.4C43.6-11.1,44.2,1.9,37.1,10.8z"/>
		<path d="M20-12.5c-5,0-9.1,4.1-9.1,9.1S15,5.7,20,5.7s9.1-4.1,9.1-9.1S25-12.5,20-12.5z M20,3c-3.5,0-6.4-2.9-6.4-6.4
			s2.9-6.4,6.4-6.4s6.4,2.9,6.4,6.4S23.5,3,20,3z"/>
	</g>
</g>
<g id="Search" display="none">
	<path display="inline" d="M51.9,34.2l-17-17.1c4.6-5,7.2-11.5,7.2-18.4c0-7.3-2.8-14.1-8-19.2c-5.1-5.1-12-8-19.2-8
		c-7.3,0-14.1,2.8-19.2,8c-5.1,5.1-8,12-8,19.2c0,7.3,2.8,14.1,8,19.2c5.1,5.1,12,8,19.2,8c6.7,0,13.1-2.4,18.1-6.9l17,17.1
		c0.3,0.3,0.6,0.4,1,0.4c0.3,0,0.7-0.1,1-0.4C52.5,35.6,52.5,34.7,51.9,34.2z M-9.6-1.3c0-13.5,11-24.5,24.5-24.5s24.5,11,24.5,24.5
		s-11,24.5-24.5,24.5S-9.6,12.2-9.6-1.3z"/>
</g>
<g id="Plus" display="none">
	<g display="inline">
		<g>
			<path fill="#1D1D1B" d="M34.8,2.1H22.4v-12.3c0-1.1-0.9-2-2-2s-2,0.9-2,2V2.1H6.1c-1.1,0-2,0.9-2,2s0.9,2,2,2h12.3v12.3
				c0,1.1,0.9,2,2,2s2-0.9,2-2V6.2h12.3c1.1,0,2-0.9,2-2S35.9,2.1,34.8,2.1z"/>
			<path fill="#1D1D1B" d="M20-28.5C2.1-28.5-12.5-13.9-12.5,4S2.1,36.5,20,36.5S52.5,21.9,52.5,4S37.9-28.5,20-28.5z M20,32.4
				C4.3,32.4-8.4,19.6-8.4,4S4.3-24.4,20-24.4S48.4-11.7,48.4,4S35.7,32.4,20,32.4z"/>
		</g>
	</g>
</g>
<g id="Close" display="none">
	<g display="inline">
		<g>
			<path fill="#1D1D1B" d="M34.7-10.2c-0.8-0.8-2.1-0.8-2.9,0L20,1.6L8.2-10.2c-0.8-0.8-2.1-0.8-2.9,0s-0.8,2.1,0,2.9L17,4.4
				L5.3,16.1c-0.8,0.8-0.8,2.1,0,2.9c0.4,0.4,0.9,0.6,1.4,0.6s1-0.2,1.4-0.6L20,7.1l11.8,11.8c0.4,0.4,0.9,0.6,1.4,0.6
				s1-0.2,1.4-0.6c0.8-0.8,0.8-2.1,0-2.9L23,4.4L34.7-7.3C35.5-8.1,35.5-9.4,34.7-10.2z"/>
			<path fill="#1D1D1B" d="M20-28.5C2.1-28.5-12.5-13.9-12.5,4S2.1,36.5,20,36.5S52.5,21.9,52.5,4S37.9-28.5,20-28.5z M20,32.4
				C4.3,32.4-8.4,19.6-8.4,4c0-15.7,12.8-28.4,28.4-28.4c15.7,0,28.4,12.8,28.4,28.4C48.4,19.7,35.7,32.4,20,32.4z"/>
		</g>
	</g>
</g>
<g id="Close-2" display="none">
	<g display="inline">
		<path d="M16.9,4l-28.8,28.8c-0.8,0.8-0.8,2.1,0,2.9c0.4,0.4,0.9,0.6,1.4,0.6s1-0.2,1.4-0.6l29-29l29,29c0.4,0.4,0.9,0.6,1.4,0.6
			s1-0.2,1.4-0.6c0.8-0.8,0.8-2.1,0-2.9L23.1,4l28.8-28.8c0.8-0.8,0.8-2.1,0-2.9c-0.8-0.8-2.1-0.8-2.9,0l-29,29l-29-29
			c-0.8-0.8-2.1-0.8-2.9,0c-0.8,0.8-0.8,2.1,0,2.9L16.9,4z"/>
	</g>
</g>
<g id="Dots">
	<g>
		<circle fill="#FF6739" cx="4" cy="4" r="4"/>
		<circle fill="#FF6739" cx="20" cy="4" r="4"/>
		<circle fill="#FF6739" cx="36" cy="4" r="4"/>
	</g>
</g>
<g id="Find" display="none">
	<g display="inline">
		<path fill="#1D1D1B" d="M14,24.4c6.6,0,12.5-2.4,17.2-6.4L49,35.9c0.4,0.4,0.9,0.6,1.5,0.6c0.5,0,1.1-0.2,1.5-0.6s0.6-0.9,0.6-1.5
			s-0.2-1.1-0.6-1.5L34.1,15.1c4-4.6,6.4-10.6,6.4-17.2C40.4-16.6,28.6-28.5,14-28.5S-12.5-16.6-12.5-2S-0.6,24.4,14,24.4z M14-24.4
			c12.3,0,22.3,10,22.3,22.3S26.3,20.2,14,20.2S-8.3,10.2-8.3-2.1C-8.4-14.4,1.6-24.4,14-24.4z"/>
	</g>
</g>
<g id="Lost" display="none">
	<g display="inline">
		<g>
			<circle fill="#1D1D1B" cx="20" cy="22.3" r="2.3"/>
			<path fill="#1D1D1B" d="M18-3.3v17.6c0,1.1,0.9,2,2,2s2-0.9,2-2V-3.3c0-1.1-0.9-2-2-2S18-4.4,18-3.3z"/>
			<path fill="#1D1D1B" d="M52.3,31.6L21.8-25.6c-0.7-1.3-2.9-1.3-3.6,0l-30.5,57.2c-0.3,0.6-0.3,1.4,0.1,2c0.4,0.6,1,1,1.8,1h60.9
				c0.7,0,1.4-0.4,1.8-1C52.6,33,52.6,32.2,52.3,31.6z M-7.1,30.5L20-20.3l27.1,50.8H-7.1z"/>
		</g>
	</g>
</g>
<g id="Find-Old" display="none">
	<g display="inline">
		<g id="search_4_">
			<path d="M33.9,12.4h-3l-1.1-1.1c3.7-4.1,5.9-9.7,5.9-15.6C35.8-17.7,25-28.5,11.6-28.5S-12.5-17.7-12.5-4.4s10.8,24.1,24.1,24.1
				c5.9,0,11.5-2.2,15.6-5.9l1.1,1.1v3l18.6,18.6l5.6-5.6L33.9,12.4z M11.6,12.4C2.3,12.4-5.1,5-5.1-4.3S2.3-21,11.6-21
				s16.7,7.4,16.7,16.7S20.9,12.4,11.6,12.4z"/>
		</g>
	</g>
</g>
<g id="Lost-Old" display="none">
	<path display="inline" d="M-12.5,32.1h65L20-24.1L-12.5,32.1z M23,23.2h-6v-5.9h6V23.2z M23,11.4h-6V-0.4h6V11.4z"/>
</g>
<g id="Logo-Looky" display="none">
	<g id="XMLID_109_" display="inline">
		<path id="XMLID_111_" d="M20-28.5C5.5-28.5-6.3-16.7-6.3-2.2c0,6.2,2,12,5.8,16.4c0,0,8.8,9.8,12.9,14.5c0.5,0.6,1.4,0.6,1.9,0
			c5.1-6.3,8.3-14.1,9.1-22.6c2,0.7,4.2,1.3,6.3,1.7C30.8,8,32,7.7,32.9,6.9c2.6-2.4,4.9-5.2,6.8-8.2c0.3-0.4,0.4-0.9,0.2-1.4
			c-0.5-1.8-1.7-3.4-3.4-4.2c-1.9-0.8-3.8-1.7-5.5-2.7c-0.4-0.2-0.6-0.5-0.8-0.9c-0.6-1.5-1.2-2.9-2-4.3c-0.2-0.3-0.4-0.6-0.7-0.9
			c-2.2-1.7-4.6-3.2-7.2-4.4c-0.8-0.4-1.8-0.5-2.7-0.2c-3.1,1-6,2.4-8.7,4C8.4-16,8-15.6,7.7-15.1C4.5-9.7,2.4-3.5,1.6,3
			C1.5,4.1,1.7,5.2,2.2,6.2c2.3,4.4,5.5,8.3,9.3,11.5c0.6,0.5,1.5,0.4,1.9-0.3c3.4-5.2,5.4-11.4,5.4-18.1c0-3.2-0.5-6.2-1.3-9.1
			c-0.2-0.6-0.8-1-1.5-0.8l0,0c-0.6,0.2-0.9,0.8-0.7,1.4c0.8,2.7,1.2,5.6,1.2,8.5c0,5.8-1.6,11.3-4.5,15.9c-3.1-2.8-5.8-6.1-7.7-9.9
			C3.9,4.6,3.8,3.9,3.9,3.1C4.6-2.8,6.5-8.4,9.4-13.4c0.3-0.5,0.7-1,1.3-1.3c2.2-1.3,4.4-2.4,6.9-3.2c0.9-0.3,2-0.2,2.9,0.2
			c1.9,0.9,3.6,2,5.3,3.3c0.3,0.2,0.6,0.6,0.8,0.9c0.7,1.4,1.4,2.8,1.9,4.3c0.1,0.4,0.4,0.7,0.8,1c2.1,1.3,4.2,2.4,6.5,3.3l0,0
			c0.9,0.4,1.6,1.2,1.9,2.1c0.1,0.2,0.1,0.5-0.1,0.7C36,0.4,34.1,2.7,32,4.7c-0.6,0.6-1.6,0.9-2.4,0.7c-2.4-0.5-4.7-1.2-6.9-2.1
			c-0.6-0.2-1.2,0.2-1.3,0.8c-0.4,8.3-3.3,16-8,22.3l-11.5-13c-0.7-0.8-1.3-1.7-1.9-2.6C-2.5,7-3.9,2.5-3.9-2.3
			c0-13.2,10.8-24,24-24s23.8,10.5,24,23.7c0.1,4.9-1.4,9.6-3.9,13.4c-0.6,0.9-1.2,1.7-1.9,2.6L20,33.9l-2.3-2.5
			c-0.4-0.5-1.2-0.5-1.6,0l0,0c-0.3,0.4-0.3,1,0,1.4l2.9,3.3c0.5,0.6,1.4,0.6,1.9,0l19.5-21.9C44.1,9.8,46.2,4,46.2-2.2
			C46.3-16.7,34.5-28.5,20-28.5z"/>
		<circle id="XMLID_110_" cx="23.8" cy="-7.6" r="1.5"/>
	</g>
</g>
</svg>
