<?xml version="1.0" encoding="utf-8"?>
<!-- Generator: Adobe Illustrator 21.0.2, SVG Export Plug-In . SVG Version: 6.00 Build 0)  -->
<svg version="1.1" id="Layer_1" xmlns="http://www.w3.org/2000/svg" xmlns:xlink="http://www.w3.org/1999/xlink" x="0px" y="0px"
	 viewBox="0 0 100 100" enable-background="new 0 0 100 100" xml:space="preserve">
<g id="XMLID_109_">
	<path id="XMLID_111_" fill="#FF4F1F" d="M50,0.5c-22.1,0-40,17.9-40,40c0,9.5,3.1,18.3,8.8,25c0,0,13.4,15,19.6,22
		c0.8,0.9,2.2,0.9,3-0.1C49.1,77.9,54.1,66,55.2,53c3.1,1.1,6.3,2,9.7,2.6c1.7,0.3,3.5-0.2,4.8-1.4c4-3.7,7.4-8,10.4-12.5
		c0.4-0.6,0.5-1.4,0.4-2.2c-0.7-2.8-2.6-5.1-5.2-6.3c-2.9-1.2-5.7-2.6-8.4-4.2c-0.5-0.3-1-0.8-1.2-1.4c-0.8-2.3-1.9-4.5-3-6.6
		c-0.3-0.5-0.7-1-1.1-1.3c-3.4-2.6-7-4.9-11-6.7c-1.3-0.6-2.7-0.7-4-0.3c-4.7,1.5-9.2,3.6-13.3,6.2c-0.8,0.5-1.4,1.1-1.8,1.9
		c-4.8,8.3-8,17.6-9.2,27.6c-0.2,1.7,0.1,3.3,0.9,4.8c3.5,6.7,8.3,12.7,14.1,17.5c0.9,0.7,2.2,0.5,2.9-0.4
		c5.2-7.9,8.3-17.4,8.3-27.6c0-4.8-0.7-9.5-2-13.9C46,27.8,45,27.2,44,27.6l0,0c-0.9,0.3-1.3,1.2-1.1,2.1c1.2,4.1,1.8,8.5,1.8,12.9
		c0,8.9-2.5,17.2-6.8,24.3c-4.7-4.3-8.8-9.4-11.8-15.1c-0.5-1-0.7-2.2-0.6-3.3c1.1-9,4-17.5,8.3-25.1c0.5-0.8,1.1-1.5,1.9-2
		c3.3-2,6.8-3.6,10.5-4.9c1.4-0.5,3-0.4,4.3,0.3c2.8,1.4,5.5,3.1,8.1,5c0.5,0.4,0.9,0.9,1.2,1.4c1.1,2.1,2.1,4.3,2.9,6.6
		c0.2,0.6,0.6,1.1,1.2,1.5c3.1,2,6.5,3.6,9.9,5l0,0c1.3,0.6,2.4,1.8,2.9,3.1c0.1,0.3,0.1,0.7-0.1,1c-2.5,3.8-5.3,7.2-8.5,10.4
		c-1,1-2.4,1.4-3.7,1.1c-3.6-0.7-7.2-1.8-10.6-3.2C53,48.4,52,49.1,51.9,50c-0.5,12.7-5,24.4-12.2,33.9L22.4,64.4
		c-1.1-1.2-2-2.5-2.9-3.9c-3.8-5.7-6-12.6-6-20C13.5,20.3,29.9,4,50,4c20.1,0,36.3,16,36.5,36.1c0.1,7.5-2.1,14.6-6,20.4
		c-0.9,1.4-1.9,2.7-2.9,3.9L50,95.5l-3.5-3.9c-0.7-0.8-1.8-0.7-2.5,0l0,0c-0.5,0.6-0.5,1.6,0,2.2l4.5,5c0.8,0.9,2.1,0.9,2.9,0
		l29.8-33.4c5.7-6.7,8.8-15.5,8.8-25C90,18.4,72.1,0.5,50,0.5z"/>
	<circle id="XMLID_110_" fill="#FF4F1F" cx="55.8" cy="32.3" r="2.4"/>
</g>
</svg>
