<?xml version="1.0" encoding="utf-8"?>
<!-- Generator: Adobe Illustrator 21.0.2, SVG Export Plug-In . SVG Version: 6.00 Build 0)  -->
<svg version="1.1" xmlns="http://www.w3.org/2000/svg" xmlns:xlink="http://www.w3.org/1999/xlink" x="0px" y="0px"
	 viewBox="0 0 165 70" enable-background="new 0 0 165 70" xml:space="preserve">
<g id="Layer_1" display="none">
	<g id="XMLID_1_" display="inline">
		<g id="XMLID_12_">
			<path id="XMLID_14_" fill="#FF4F1F" d="M29.9,1.1C14.8,1.1,2.5,13.4,2.5,28.5c0,6.5,2.1,12.5,6,17.1c0,0,9.1,10.3,13.4,15.1
				c0.5,0.6,1.5,0.6,2,0c5.3-6.6,8.7-14.7,9.5-23.6c2.1,0.8,4.3,1.4,6.6,1.8c1.2,0.2,2.4-0.1,3.3-1c2.7-2.5,5.1-5.4,7.1-8.6
				c0.3-0.4,0.4-1,0.2-1.5c-0.5-1.9-1.8-3.5-3.6-4.3c-2-0.8-3.9-1.8-5.7-2.8c-0.4-0.2-0.7-0.6-0.8-1c-0.6-1.6-1.3-3-2.1-4.5
				c-0.2-0.3-0.5-0.7-0.8-0.9c-2.3-1.8-4.8-3.3-7.5-4.6c-0.9-0.4-1.9-0.5-2.8-0.2c-3.2,1-6.3,2.5-9.1,4.2c-0.5,0.3-0.9,0.8-1.3,1.3
				c-3.3,5.7-5.5,12-6.3,18.9c-0.1,1.1,0.1,2.3,0.6,3.3c2.4,4.6,5.7,8.7,9.7,12c0.6,0.5,1.5,0.4,2-0.3c3.6-5.4,5.6-11.9,5.6-18.9
				c0-3.3-0.5-6.5-1.3-9.5c-0.2-0.6-0.9-1-1.5-0.8l0,0c-0.6,0.2-0.9,0.8-0.7,1.4c0.8,2.8,1.2,5.8,1.2,8.9c0,6.1-1.7,11.8-4.6,16.6
				c-3.2-2.9-6-6.4-8.1-10.3c-0.4-0.7-0.5-1.5-0.4-2.3c0.8-6.2,2.8-12,5.7-17.2c0.3-0.6,0.8-1,1.3-1.4c2.2-1.3,4.6-2.5,7.2-3.3
				c1-0.3,2.1-0.3,3,0.2c1.9,1,3.8,2.1,5.5,3.4c0.3,0.3,0.6,0.6,0.8,1c0.8,1.4,1.4,3,2,4.5c0.1,0.4,0.4,0.8,0.8,1
				c2.1,1.3,4.4,2.5,6.8,3.4l0,0c0.9,0.4,1.6,1.2,2,2.1c0.1,0.2,0.1,0.5-0.1,0.7c-1.7,2.6-3.6,5-5.8,7.1c-0.7,0.7-1.6,0.9-2.6,0.8
				c-2.5-0.5-4.9-1.2-7.2-2.2c-0.6-0.2-1.3,0.2-1.3,0.8c-0.4,8.7-3.4,16.7-8.4,23.2L11,44.8c-0.7-0.8-1.4-1.7-2-2.7
				c-2.6-3.9-4.1-8.6-4.1-13.7c0-13.8,11.2-25,25-25c13.7,0,24.8,11,25,24.7c0.1,5.2-1.5,10-4.1,14c-0.6,0.9-1.3,1.8-2,2.7
				L29.9,66.1l-2.4-2.7c-0.5-0.5-1.3-0.5-1.7,0l0,0c-0.4,0.4-0.4,1.1,0,1.5l3.1,3.4c0.5,0.6,1.5,0.6,2,0l20.4-22.8
				c3.9-4.6,6-10.6,6-17.1C57.2,13.4,45,1.1,29.9,1.1z"/>
			<circle id="XMLID_13_" fill="#FF4F1F" cx="33.9" cy="22.9" r="1.6"/>
		</g>
		<g id="XMLID_2_">
			<path id="XMLID_9_" fill="#FFFFFF" d="M85,27.2c-5.1,0-9.3,4.6-9.3,10.2s4.2,10.2,9.3,10.2c5.1,0,9.3-4.6,9.3-10.2
				S90.1,27.2,85,27.2z M85,45.1c-3.8,0-6.9-3.5-6.9-7.8s3.1-7.8,6.9-7.8c3.8,0,6.9,3.5,6.9,7.8S88.8,45.1,85,45.1z"/>
			<path id="XMLID_6_" fill="#FFFFFF" d="M108.3,27.2c-5.1,0-9.3,4.6-9.3,10.2s4.2,10.2,9.3,10.2s9.3-4.6,9.3-10.2
				S113.5,27.2,108.3,27.2z M108.3,45.1c-3.8,0-6.9-3.5-6.9-7.8s3.1-7.8,6.9-7.8c3.8,0,6.9,3.5,6.9,7.8S112.2,45.1,108.3,45.1z"/>
			<path id="XMLID_5_" fill="#FFFFFF" d="M70.9,41.8V18.1h-2.4v23.7c0,5.6,4.2,10.2,9.3,10.2v-2.4C74,49.6,70.9,46.1,70.9,41.8z"/>
			<polygon id="XMLID_4_" fill="#FFFFFF" points="136.6,27.2 127.6,36.1 124.8,36.1 124.8,18.1 122.4,18.1 122.4,47.5 124.8,47.5 
				124.8,38.5 127.6,38.5 136.6,47.5 139.9,47.5 129.8,37.3 139.9,27.2 			"/>
			<path id="XMLID_3_" fill="#FFFFFF" d="M159.9,27.2l-6.3,13.5l-6.3-13.5h-2.6l7.6,16.3l0,0l-1.1,2.4c-1.2,2.3-3.4,3.8-6,3.8V52
				c3.6,0,6.8-2.3,8.3-5.6l8.9-19.2H159.9z"/>
		</g>
	</g>
</g>
<g id="Layer_2">
	<g id="XMLID_26_">
		<path id="XMLID_28_" fill="#FF4F1F" d="M29.9,1.1C14.8,1.1,2.5,13.4,2.5,28.5c0,6.5,2.1,12.5,6,17.1c0,0,9.1,10.3,13.4,15.1
			c0.5,0.6,1.5,0.6,2,0c5.3-6.6,8.7-14.7,9.5-23.6c2.1,0.8,4.3,1.4,6.6,1.8c1.2,0.2,2.4-0.1,3.3-1c2.7-2.5,5.1-5.4,7.1-8.6
			c0.3-0.4,0.4-1,0.2-1.5c-0.5-1.9-1.8-3.5-3.6-4.3c-2-0.8-3.9-1.8-5.7-2.8c-0.4-0.2-0.7-0.6-0.8-1c-0.6-1.6-1.3-3-2.1-4.5
			c-0.2-0.3-0.5-0.7-0.8-0.9c-2.3-1.8-4.8-3.3-7.5-4.6c-0.9-0.4-1.9-0.5-2.8-0.2c-3.2,1-6.3,2.5-9.1,4.2c-0.5,0.3-0.9,0.8-1.3,1.3
			c-3.3,5.7-5.5,12-6.3,18.9c-0.1,1.1,0.1,2.3,0.6,3.3c2.4,4.6,5.7,8.7,9.7,12c0.6,0.5,1.5,0.4,2-0.3c3.6-5.4,5.6-11.9,5.6-18.9
			c0-3.3-0.5-6.5-1.3-9.5c-0.2-0.6-0.9-1-1.5-0.8l0,0c-0.6,0.2-0.9,0.8-0.7,1.4c0.8,2.8,1.2,5.8,1.2,8.9c0,6.1-1.7,11.8-4.6,16.6
			c-3.2-2.9-6-6.4-8.1-10.3c-0.4-0.7-0.5-1.5-0.4-2.3c0.8-6.2,2.8-12,5.7-17.2c0.3-0.6,0.8-1,1.3-1.4c2.2-1.3,4.6-2.5,7.2-3.3
			c1-0.3,2.1-0.3,3,0.2c1.9,1,3.8,2.1,5.5,3.4c0.3,0.3,0.6,0.6,0.8,1c0.8,1.4,1.4,3,2,4.5c0.1,0.4,0.4,0.8,0.8,1
			c2.1,1.3,4.4,2.5,6.8,3.4l0,0c0.9,0.4,1.6,1.2,2,2.1c0.1,0.2,0.1,0.5-0.1,0.7c-1.7,2.6-3.6,5-5.8,7.1c-0.7,0.7-1.6,0.9-2.6,0.8
			c-2.5-0.5-4.9-1.2-7.2-2.2c-0.6-0.2-1.3,0.2-1.3,0.8c-0.4,8.7-3.4,16.7-8.4,23.2L11,44.8c-0.7-0.8-1.4-1.7-2-2.7
			c-2.6-3.9-4.1-8.6-4.1-13.7c0-13.8,11.2-25,25-25c13.7,0,24.8,11,25,24.7c0.1,5.2-1.5,10-4.1,14c-0.6,0.9-1.3,1.8-2,2.7L29.9,66.1
			l-2.4-2.7c-0.5-0.5-1.3-0.5-1.7,0l0,0c-0.4,0.4-0.4,1.1,0,1.5l3.1,3.4c0.5,0.6,1.5,0.6,2,0l20.4-22.8c3.9-4.6,6-10.6,6-17.1
			C57.2,13.4,45,1.1,29.9,1.1z"/>
		<circle id="XMLID_27_" fill="#FF4F1F" cx="33.9" cy="22.9" r="1.6"/>
	</g>
	<g id="XMLID_16_">
		<path id="XMLID_23_" fill="#111F21" d="M85,27.1c-5.1,0-9.3,4.6-9.3,10.2s4.2,10.2,9.3,10.2c5.1,0,9.3-4.6,9.3-10.2
			S90.1,27.1,85,27.1z M85,45.1c-3.8,0-6.9-3.5-6.9-7.8s3.1-7.8,6.9-7.8c3.8,0,6.9,3.5,6.9,7.8S88.8,45.1,85,45.1z"/>
		<path id="XMLID_20_" fill="#111F21" d="M108.3,27.1c-5.1,0-9.3,4.6-9.3,10.2s4.2,10.2,9.3,10.2s9.3-4.6,9.3-10.2
			S113.5,27.1,108.3,27.1z M108.3,45.1c-3.8,0-6.9-3.5-6.9-7.8s3.1-7.8,6.9-7.8c3.8,0,6.9,3.5,6.9,7.8S112.2,45.1,108.3,45.1z"/>
		<path id="XMLID_19_" fill="#111F21" d="M70.9,41.8V18.1h-2.4v23.7c0,5.6,4.2,10.2,9.3,10.2v-2.4C74,49.6,70.9,46.1,70.9,41.8z"/>
		<polygon id="XMLID_18_" fill="#111F21" points="136.6,27.1 127.6,36.1 124.8,36.1 124.8,18.1 122.4,18.1 122.4,47.4 124.8,47.4 
			124.8,38.4 127.6,38.4 136.6,47.4 139.9,47.4 129.8,37.3 139.9,27.1 		"/>
		<path id="XMLID_17_" fill="#111F21" d="M159.9,27.1l-6.3,13.5l-6.3-13.5h-2.6l7.6,16.3l0,0l-1.1,2.4c-1.2,2.3-3.4,3.8-6,3.8v2.4
			c3.6,0,6.8-2.3,8.3-5.6l8.9-19.2H159.9z"/>
	</g>
</g>
</svg>
